<svg width="18" height="19" viewBox="0 0 18 19" fill="none" xmlns="http://www.w3.org/2000/svg">
<path d="M15.6726 2.82731C15.3351 2.48986 14.8773 2.30029 14.4 2.30029C13.9228 2.30029 13.465 2.48986 13.1274 2.82731L6.30005 9.65471V12.1999H8.84525L15.6726 5.37251C16.0101 5.03496 16.1997 4.5772 16.1997 4.09991C16.1997 3.62261 16.0101 3.16486 15.6726 2.82731Z" fill="white"/>
<path fill-rule="evenodd" clip-rule="evenodd" d="M1.80005 5.9001C1.80005 5.42271 1.98969 4.96487 2.32726 4.62731C2.66482 4.28974 3.12266 4.1001 3.60005 4.1001H7.20005C7.43874 4.1001 7.66766 4.19492 7.83644 4.3637C8.00523 4.53248 8.10005 4.7614 8.10005 5.0001C8.10005 5.23879 8.00523 5.46771 7.83644 5.63649C7.66766 5.80528 7.43874 5.9001 7.20005 5.9001H3.60005V14.9001H12.6V11.3001C12.6 11.0614 12.6949 10.8325 12.8637 10.6637C13.0324 10.4949 13.2614 10.4001 13.5 10.4001C13.7387 10.4001 13.9677 10.4949 14.1364 10.6637C14.3052 10.8325 14.4 11.0614 14.4 11.3001V14.9001C14.4 15.3775 14.2104 15.8353 13.8728 16.1729C13.5353 16.5105 13.0774 16.7001 12.6 16.7001H3.60005C3.12266 16.7001 2.66482 16.5105 2.32726 16.1729C1.98969 15.8353 1.80005 15.3775 1.80005 14.9001V5.9001Z" fill="white"/>
</svg>
